PathFileType	4	(X/Y/Z)	C:/Users/opensim2020/Desktop/walking_exp_matlab/subject03_walking08_straight_02.trc																																																																																																																																																							
DataRate	CameraRate	NumFrames	NumMarkers	Units	OrigDataRate	OrigDataStartFrame	OrigNumFrames																																																																																																																																																			
100	100	4	51	mm	100	1788	314																																																																																																																																																			
Frame#	Time	LFHD			RFHD			LBHD			RBHD			C7			T10			CLAV			STRN			RBAK			LSHO			LUPA			LELB			LFRM			LWRA			LWRB			LFIN			RSHO			RUPA			RELB			RFRM			RWRA			RWRB			RFIN			LASI			RASI			LPSI			RPSI			LTHI			LKNE			LTIB			LANK			LHEE			LTOE			RTHI			RKNE			RTIB			RANK			RHEE			RTOE			*39			*40			*41			*42			*43			*44			*45			*46			*47			*48			*49			*50		
		X1	Y1	Z1	X2	Y2	Z2	X3	Y3	Z3	X4	Y4	Z4	X5	Y5	Z5	X6	Y6	Z6	X7	Y7	Z7	X8	Y8	Z8	X9	Y9	Z9	X10	Y10	Z10	X11	Y11	Z11	X12	Y12	Z12	X13	Y13	Z13	X14	Y14	Z14	X15	Y15	Z15	X16	Y16	Z16	X17	Y17	Z17	X18	Y18	Z18	X19	Y19	Z19	X20	Y20	Z20	X21	Y21	Z21	X22	Y22	Z22	X23	Y23	Z23	X24	Y24	Z24	X25	Y25	Z25	X26	Y26	Z26	X27	Y27	Z27	X28	Y28	Z28	X29	Y29	Z29	X30	Y30	Z30	X31	Y31	Z31	X32	Y32	Z32	X33	Y33	Z33	X34	Y34	Z34	X35	Y35	Z35	X36	Y36	Z36	X37	Y37	Z37	X38	Y38	Z38	X39	Y39	Z39	X40	Y40	Z40	X41	Y41	Z41	X42	Y42	Z42	X43	Y43	Z43	X44	Y44	Z44	X45	Y45	Z45	X46	Y46	Z46	X47	Y47	Z47	X48	Y48	Z48	X49	Y49	Z49	X50	Y50	Z50	X51	Y51	Z51
																																																																																																																																																										
236	2.35	720.75702	1610.9574	-1538.89587	696.33972	1615.81006	-1407.92017	588.52643	1591.30493	-1559.49951	569.00214	1594.5603	-1430.10498	525.28662	1424.89453	-1508.23108	499.74078	1105.67676	-1507.27344	644.1687	1346.88318	-1491.53943	693.40906	1185.40808	-1490.64453	462.65311	1243.41443	-1417.53638	619.35577	1381.82849	-1650.979	649.22766	1189.1167	-1724.5022	681.31812	1070.30286	-1735.74927	728.65692	949.04327	-1729.77002	758.15021	834.36469	-1697.77612	750.88837	839.40625	-1752.85242	779.92432	761.07928	-1741.50098	580.69006	1369.29431	-1338.28516	591.27539	1144.64795	-1269.38696	615.1969	1034.30884	-1257.39978	640.04401	899.56195	-1254.73755	678.95447	806.76312	-1288.05261	644.36407	799.44922	-1246.55432	672.93005	730.91968	-1254.32019	682.9516	951.94989	-1611.03284	660.35687	943.37061	-1372.37231	516.41797	972.12225	-1574.76404	503.67365	969.08704	-1425.8645	633.5072	648.7514	-1650.69836	637.21173	471.46774	-1607.1488	590.19611	281.49759	-1609.06763	578.729	71.44386	-1565.68933	538.7392	35.74164	-1529.62305	731.35663	35.6124	-1530.51392	645.85254	644.31329	-1330.2605	701.28174	472.65268	-1348.94214	577.96356	327.504	-1353.64111	441.11423	164.00644	-1403.28833	389.84415	159.41721	-1459.76196	530.92279	56.47419	-1409.13684	NaN	NaN	NaN	NaN	NaN	NaN	NaN	NaN	NaN	NaN	NaN	NaN	NaN	NaN	NaN	NaN	NaN	NaN	NaN	NaN	NaN	NaN	NaN	NaN	NaN	NaN	NaN	NaN	NaN	NaN	NaN	NaN	NaN	NaN	NaN	NaN
237	2.36	727.77264	1610.97754	-1538.47461	702.96942	1615.65942	-1407.52954	595.59631	1591.54187	-1559.49207	575.6308	1594.64111	-1430.16174	532.15375	1424.84814	-1508.54272	507.17886	1105.43701	-1507.33508	650.89624	1346.91467	-1491.69055	700.25018	1185.46057	-1490.96301	469.36667	1243.44055	-1418.06274	626.26801	1382.19604	-1651.03687	658.00452	1190.20618	-1725.04883	692.0368	1071.97327	-1736.49744	742.07819	951.86981	-1730.52332	773.83752	837.73773	-1698.30481	766.50995	842.7085	-1753.38818	797.2854	765.02734	-1742.19458	587.01666	1369.42615	-1338.54736	596.63757	1144.82117	-1269.24695	620.00604	1034.41418	-1257.04297	644.28973	899.61371	-1254.1908	682.81537	806.64417	-1287.31311	648.20227	799.48102	-1245.73767	676.46582	730.65454	-1253.47766	689.737	951.74542	-1611.65259	667.72644	943.54004	-1372.94678	523.17749	972.01947	-1574.94678	511.19846	968.94348	-1426.06982	638.42413	648.55432	-1650.5603	640.17975	471.15564	-1607.16907	591.93066	281.61493	-1609.05908	578.88892	71.54866	-1565.61426	538.22827	36.41462	-1529.94104	731.45709	35.58311	-1530.51453	656.6908	645.60175	-1330.77136	714.52063	474.37045	-1350.13562	595.41821	325.43271	-1354.4126	463.79523	157.46869	-1403.76892	412.34558	150.61369	-1459.8916	558.35632	54.15973	-1409.91614	651.39301	1688.79333	-1502.37805	NaN	NaN	NaN	NaN	NaN	NaN	NaN	NaN	NaN	NaN	NaN	NaN	NaN	NaN	NaN	NaN	NaN	NaN	NaN	NaN	NaN	NaN	NaN	NaN	NaN	NaN	NaN	NaN	NaN	NaN	NaN	NaN	NaN
238	2.37	734.72675	1610.96826	-1537.98914	709.72028	1615.47791	-1407.10791	602.75726	1591.72009	-1559.33325	582.24316	1594.6615	-1430.19617	539.11133	1424.89185	-1508.88135	513.53632	1105.86755	-1508.35461	657.6355	1346.91101	-1491.83228	707.08643	1185.46094	-1491.24243	476.22565	1243.30933	-1418.41956	633.14667	1382.45972	-1651.04663	666.53387	1191.22949	-1725.62708	702.28516	1073.66125	-1737.49353	755.07489	954.61047	-1731.27209	789.56787	841.17896	-1698.72302	781.80212	845.97516	-1753.8407	814.38495	768.95837	-1742.66748	593.58807	1369.38086	-1338.77295	602.04205	1144.91797	-1269.07922	624.74707	1034.47571	-1256.58289	648.48303	899.52185	-1253.57483	686.58795	806.25653	-1286.65479	652.05182	799.36182	-1245.02979	679.76733	730.38818	-1252.72144	696.39429	951.48743	-1612.39697	674.90961	943.69861	-1373.66833	530.06122	971.76617	-1575.02649	518.23077	968.90338	-1426.24316	643.44684	648.01727	-1650.66553	643.38666	470.89014	-1607.4043	593.75299	281.73013	-1609.0321	579.02545	71.72655	-1565.49927	538.14166	36.72279	-1529.93701	731.4928	35.53615	-1530.54663	667.69849	646.45227	-1330.89575	727.46222	476.08331	-1351.31287	612.90076	323.27344	-1355.20874	487.06	150.50154	-1404.21985	434.99875	141.70612	-1460.68665	586.3136	51.93536	-1410.50366	658.52368	1688.61145	-1501.75903	NaN	NaN	NaN	NaN	NaN	NaN	NaN	NaN	NaN	NaN	NaN	NaN	NaN	NaN	NaN	NaN	NaN	NaN	NaN	NaN	NaN	NaN	NaN	NaN	NaN	NaN	NaN	NaN	NaN	NaN	NaN	NaN	NaN
239	2.38	741.67609	1610.91821	-1537.47925	716.39227	1615.28577	-1406.65723	609.60931	1591.81934	-1559.26599	588.96759	1594.50403	-1430.11438	545.94073	1424.76855	-1508.89783	520.76416	1105.39783	-1508.56921	664.39069	1346.81567	-1491.9353	713.93988	1185.40759	-1491.53918	482.99637	1243.05212	-1418.84363	640.01453	1382.63647	-1651.04419	675.22119	1192.08276	-1726.20862	712.43237	1075.22864	-1738.55225	768.0434	957.34631	-1732.03711	805.2262	844.85834	-1699.15356	796.87823	849.20239	-1754.16602	831.17328	772.935	-1742.92285	600.14545	1369.25562	-1338.95618	607.45856	1144.86511	-1268.87183	629.37878	1034.33569	-1256.10461	652.82001	899.38208	-1252.89026	690.74243	806.07794	-1285.8606	655.84814	799.17883	-1244.3501	683.48047	730.03381	-1251.88513	702.89355	951.10107	-1613.03979	682.15076	943.87781	-1374.05737	536.74579	971.57965	-1575.15613	525.31049	968.85199	-1426.36743	648.16492	647.50916	-1651.34631	646.76459	470.61334	-1607.56958	595.63086	281.82849	-1609.03857	579.35657	71.67677	-1565.08276	538.1214	36.56364	-1529.73181	731.55115	35.45826	-1530.5863	678.54437	647.49982	-1331.1344	739.97711	477.84094	-1352.45068	630.30414	320.93082	-1355.84204	510.62051	143.60316	-1404.68884	459.36597	132.25681	-1460.74976	614.70636	49.92348	-1410.94214	665.4364	1688.53662	-1501.36743	NaN	NaN	NaN	NaN	NaN	NaN	NaN	NaN	NaN	NaN	NaN	NaN	NaN	NaN	NaN	NaN	NaN	NaN	NaN	NaN	NaN	NaN	NaN	NaN	NaN	NaN	NaN	NaN	NaN	NaN	NaN	NaN	NaN
